# AST/ASF file generated using VICON BodyLanguage
# -----------------------------------------------
:version 1.10
:name VICON
:units
  mass 1.0
  length 0.45
  angle deg
:documentation
   .ast/.asf automatically generated from VICON data using
   VICON BodyBuilder and BodyLanguage model FoxedUp or BRILLIANT.MOD
:root
   order TX TY TZ RX RY RZ
   axis XYZ
   position 0 0 0  
   orientation 0 0 0 
:bonedata
  begin
     id 1 
     name lhipjoint
     direction 0.682418 -0.694059 0.22932 
     length 2.25561 
     axis 0 0 0  XYZ
  end
  begin
     id 2 
     name lfemur
     direction 0.34202 -0.939693 0  
     length 6.96448  
     axis 0 0 20  XYZ
    dof rx ry rz
    limits (-160.0 20.0)
           (-70.0 70.0)
           (-60.0 70.0)
  end
  begin
     id 3 
     name ltibia
     direction 0.34202 -0.939693 0   
     length 6.88553   
     axis 0 0 20   XYZ
    dof rx
    limits (-10.0 170.0)
  end
  begin
     id 4 
     name lfoot
     direction 0.0723587 -0.198804 0.977364   
     length 1.88518   
     axis -90 7.62852e-016 20   XYZ
    dof rx rz
    limits (-45.0 90.0)
           (-70.0 20.0)
  end
  begin
     id 5 
     name ltoes
     direction 1.53558e-011 -4.21962e-011 1   
     length 0.952124   
     axis -90 7.62852e-016 20   XYZ
    dof rx
    limits (-90.0 20.0)
  end
  begin
     id 6 
     name rhipjoint
     direction -0.657603 -0.71533 0.236348   
     length 2.18854  
     axis 0 0 0  XYZ 
  end
  begin
     id 7 
     name rfemur
     direction -0.34202 -0.939693 0   
     length 6.86686   
     axis 0 0 -20   XYZ
    dof rx ry rz
    limits (-160.0 20.0)
           (-70.0 70.0)
           (-70.0 60.0)
  end
  begin
     id 8 
     name rtibia
     direction -0.34202 -0.939693 0   
     length 6.59503   
     axis 0 0 -20   XYZ
    dof rx
    limits (-10.0 170.0)
 end
 begin
     id 9 
     name rfoot
     direction -0.101977 -0.280179 0.954516   
     length 1.93723  
     axis -90 -7.62852e-016 -20   XYZ
    dof rx rz
    limits (-45.0 90.0)
           (-20.0 70.0)
  end
  begin
     id 10 
     name rtoes
     direction -1.53564e-011 -4.21897e-011 1   
     length 0.970315   
     axis -90 -7.62852e-016 -20   XYZ
    dof rx
    limits (-90.0 20.0)
  end
  begin
     id 11 
     name lowerback
     direction -0.0339559 0.999421 -0.00235966   
     length 1.88543   
     axis 0 0 0   XYZ
    dof rx ry rz
    limits (-20.0 45.0)
           (-30.0 30.0)
           (-30.0 30.0)
  end
  begin
     id 12 
     name upperback
     direction 0.00401003 0.999739 0.0224689   
     length 1.8856   
     axis 0 0 0   XYZ
    dof rx ry rz
    limits (-20.0 45.0)
           (-30.0 30.0)
           (-30.0 30.0)
  end
  begin
     id 13 
     name thorax
     direction 0.0198619 0.999546 0.0226536   
     length 1.88352   
     axis 0 0 0   XYZ
    dof rx ry rz
    limits (-20.0 45.0)
           (-30.0 30.0)
           (-30.0 30.0)
  end
  begin
     id 14 
     name lowerneck
     direction -0.0461848 0.998632 0.0245198   
     length 1.34895   
     axis 0 0 0   XYZ
    dof rx ry rz
    limits (-20.0 45.0)
           (-30.0 30.0)
           (-30.0 30.0)
  end
  begin
     id 15 
     name upperneck
     direction -0.0180627 0.994724 -0.100984   
     length 1.35214   
     axis 0 0 0   XYZ
    dof rx ry rz
    limits (-20.0 45.0)
           (-30.0 30.0)
           (-30.0 30.0)
  end
  begin
     id 16
     name head
     direction -0.00374772 0.999293 -0.037403  
     length 1.3568  
     axis 0 0 0   XYZ
    dof rx ry rz
    limits (-20.0 45.0)
           (-30.0 30.0)
           (-30.0 30.0)
  end
  begin
     id 17 
     name lclavicle
     direction 0.971773 0.191119 0.138311  
     length 2.84954  
     axis 0 0 0   XYZ
    dof ry rz
    limits (-20.0 10.0)
           (0.0 20.0)
  end
  begin
     id 18 
     name lhumerus
     direction 1 -4.4897e-011 -2.43761e-027   
     length 4.40919   
     axis 180 -30 -90   XYZ
    dof rx ry rz
    limits (-60.0 90.0)
           (-90.0 90.0)
           (-90.0 90.0)
  end
  begin
     id 19
     name lradius
     direction 1 -4.4896e-011 -9.1621e-027   
     length 3.03857   
     axis 180 -30 -90   XYZ
    dof rx
    limits (-10.0 170.0)
  end
  begin
     id 20
     name lwrist
     direction 1 -4.4896e-011 -1.41363e-026   
     length 1.51928   
     axis 1.07133e-014 90 90   XYZ
    dof ry
    limits (-180.0 0.0)
 end
  begin
     id 21 
     name lhand
     direction 1 -4.48978e-011 -2.82725e-026   
     length 0.523208   
     axis 1.80403e-014 90 90   XYZ
    dof rx rz
    limits (-90.0 90.0)
           (-45.0 45.0)
  end
  begin
     id 22 
     name lfingers
     direction 1 -4.48977e-011 -5.6545e-026   
     length 0.421824   
     axis 3.60806e-014 90 90   XYZ
    dof rx
    limits (0.0 90.0)
  end
  begin
     id 23
     name lthumb
     direction 0.707107 -6.34962e-011 0.707107   
     length 0.605657   
     axis -90 45 2.85299e-015   XYZ
    dof rx rz
    limits (-45.0 45.0)
           (-45.0 45.0)
  end
  begin
     id 24 
     name rclavicle
     direction -0.957247 0.24311 0.156766   
     length 3.12406  
     axis 0 0 0   XYZ 
    dof ry rz
    limits (-10.0 20.0)
           (-20.0 0.0)
  end
  begin
     id 25 
     name rhumerus
     direction -1 -4.48964e-011 -1.70632e-027  
     length 4.61969   
     axis 180 30 90   XYZ
    dof rx ry rz
    limits (-90.0 60.0)
           (-90.0 90.0)
           (-90.0 90.0)
  end
  begin
     id 26 
     name rradius
     direction -1 -4.48966e-011 -6.60395e-027   
     length 3.09382   
     axis 180 30 90   XYZ
    dof rx
    limits (-10.0 170.0)
  end
  begin
     id 27 
     name rwrist
     direction -1 -4.48963e-011 -1.41363e-026   
     length 1.54691   
     axis 1.07133e-014 -90 -90   XYZ
    dof ry
    limits (-180.0 0.0)
  end
  begin
     id 28
     name rhand
     direction -1 -4.49013e-011 -2.82725e-026   
     length 0.500896   
     axis 1.80403e-014 -90 -90   XYZ
    dof rx rz
    limits (-90.0 90.0)
           (-45.0 45.0)
  end
  begin
     id 29
     name rfingers
     direction -1 -4.48902e-011 -5.6545e-026   
     length 0.403835   
     axis 3.60806e-014 -90 -90   XYZ
    dof rx
    limits (0.0 90.0)
  end
  begin
     id 30
     name rthumb
     direction -0.707107 -6.34953e-011 0.707107   
     length 0.579829   
     axis -90 -45 -2.85299e-015   XYZ
    dof rx rz
    limits (-45.0 45.0)
           (-45.0 45.0)
  end
:hierarchy
  begin
    root lhipjoint rhipjoint lowerback
    lhipjoint lfemur
    lfemur ltibia
    ltibia lfoot
    lfoot ltoes
    rhipjoint rfemur
    rfemur rtibia
    rtibia rfoot
    rfoot rtoes
    lowerback upperback
    upperback thorax
    thorax lowerneck lclavicle rclavicle
    lowerneck upperneck
    upperneck head
    lclavicle lhumerus
    lhumerus lradius
    lradius lwrist
    lwrist lhand lthumb
    lhand lfingers
    rclavicle rhumerus
    rhumerus rradius
    rradius rwrist
    rwrist rhand rthumb
    rhand rfingers
  end

#!OML:ASF E:\madness\Project 1\Capture day 1\Session 1\Female1.ASF
:FULLY-SPECIFIED
:DEGREES
298
root 2.33227 16.1195 -1.54545 5.81043 -41.9981 1.5139
lowerback -4.73997 1.32154 -3.13298
upperback -4.84892 1.79921 0.224254
thorax -2.44629 0.977111 2.02963
lowerneck 7.46554 -11.7889 -5.51006
upperneck 1.55308 -16.1511 2.63304
head -0.0616884 -8.14609 1.98867
rclavicle -9.58515e-015 -2.98177e-016
rhumerus -53.7763 -7.04724 -75.8047
rradius 37.2767
rwrist 3.26111
rhand -13.5717 -44.9147
rfingers 7.12502
rthumb 12.542 -74.5183
lclavicle -9.58515e-015 -2.98177e-016
lhumerus -63.8448 10.584 78.0157
lradius 69.5878
lwrist -4.00348
lhand -26.8873 -13.6463
lfingers 7.12502
lthumb -0.311226 16.3332
rfemur -4.16387 1.11833 26.9611
rtibia 17.1591
rfoot -36.9988 -36.3301
rtoes 32.8604
lfemur -27.1888 -29.047 -7.59736
ltibia 25.0522
lfoot -14.0849 -9.12007
ltoes 8.00511
299
root 2.3342 16.124 -1.5419 5.80513 -42.1718 1.47216
lowerback -4.70471 1.34224 -3.0807
upperback -4.83598 1.82506 0.253807
thorax -2.45313 0.989037 2.03062
lowerneck 7.83548 -12.1136 -5.36513
upperneck 1.06987 -16.5844 2.37215
head -0.291204 -8.35263 1.94009
rclavicle -1.17538e-013 -2.39536e-014
rhumerus -53.6819 -7.22327 -75.6526
rradius 37.1193
rwrist 3.47021
rhand -13.4255 -44.9469
rfingers 7.12502
rthumb 12.683 -74.5418
lclavicle -1.17538e-013 -2.39536e-014
lhumerus -63.703 10.5347 78.147
lradius 69.4122
lwrist -4.12824
lhand -27.0204 -13.6135
lfingers 7.12502
lthumb -0.439827 16.3657
rfemur -4.11653 1.08881 26.946
rtibia 17.1295
rfoot -36.7353 -36.2917
rtoes 32.6547
lfemur -27.0605 -29.0727 -7.5737
ltibia 25.0619
lfoot -13.9257 -9.04845
ltoes 8.9075
300
root 2.33658 16.1242 -1.53839 5.77464 -42.4042 1.48648
lowerback -4.71866 1.27643 -3.12732
upperback -4.79264 1.74105 0.321158
thorax -2.3993 0.948358 2.1254
lowerneck 7.8251 -12.1128 -5.59216
upperneck 1.07569 -16.6014 2.55557
head -0.252257 -8.36495 2.02743
rclavicle 5.58958e-014 1.93815e-014
rhumerus -53.5046 -7.15949 -75.6341
rradius 37.1021
rwrist 3.53675
rhand -13.3693 -45.1352
rfingers 7.12502
rthumb 12.7372 -74.7267
lclavicle 5.58958e-014 1.93815e-014
lhumerus -63.6455 10.7835 78.1255
lradius 69.3208
lwrist -4.16433
lhand -27.0281 -14.0167
lfingers 7.12502
lthumb -0.447195 15.9626
rfemur -4.05551 1.22058 26.88
rtibia 17.0823
rfoot -36.1162 -36.3644
rtoes 32.0124
lfemur -26.9797 -28.9768 -7.65592
ltibia 25.0909
lfoot -14.0046 -8.87775
ltoes 8.77398
301
root 2.33871 16.1225 -1.53258 5.75988 -42.7092 1.50463
lowerback -4.73231 1.20248 -3.14496
upperback -4.79623 1.64306 0.341177
thorax -2.39069 0.899826 2.15409
lowerneck 7.88285 -12.1451 -5.46426
upperneck 0.967259 -16.636 2.49285
head -0.31075 -8.37946 1.99976
rclavicle -5.14107e-014 -1.22253e-014
rhumerus -53.4579 -7.04401 -75.7456
rradius 37.2022
rwrist 3.52029
rhand -13.3577 -45.2697
rfingers 7.12502
rthumb 12.7484 -74.8606
lclavicle -5.14107e-014 -1.22253e-014
lhumerus -63.7426 10.8032 78.0404
lradius 69.2788
lwrist -4.03663
lhand -27.1319 -14.12
lfingers 7.12502
lthumb -0.547505 15.859
rfemur -4.0356 1.38446 26.8093
rtibia 17.084
rfoot -35.7406 -36.3243
rtoes 31.746
lfemur -26.8906 -28.8302 -7.75828
ltibia 25.096
lfoot -14.2155 -8.60392
ltoes 7.68736
302
root 2.33963 16.122 -1.52738 5.78121 -42.9728 1.46601
lowerback -4.67153 1.15817 -3.0702
upperback -4.86584 1.57717 0.314493
thorax -2.48956 0.865905 2.08091
lowerneck 7.95219 -12.1839 -5.35652
upperneck 0.941017 -16.6823 2.49244
head -0.337403 -8.40252 1.99082
rclavicle -1.4971e-015 8.24956e-015
rhumerus -53.5754 -7.04755 -75.8599
rradius 37.3407
rwrist 3.66203
rhand -13.2227 -45.6544
rfingers 7.12502
rthumb 12.8785 -75.2371
lclavicle -1.4971e-015 8.24956e-015
lhumerus -63.9034 10.768 77.8492
lradius 69.2212
lwrist -4.14897
lhand -27.0279 -13.9585
lfingers 7.12502
lthumb -0.44708 16.0207
rfemur -4.0502 1.38317 26.7862
rtibia 17.1183
rfoot -35.3687 -36.2332
rtoes 31.4102
lfemur -26.7839 -28.7373 -7.78013
ltibia 25.0779
lfoot -14.3235 -8.37192
ltoes 6.95831
